<svg width="3407" height="1987" xmlns="http://www.w3.org/2000/svg" xmlns:xlink="http://www.w3.org/1999/xlink" xml:space="preserve" overflow="hidden"><defs><clipPath id="clip0"><rect x="446" y="140" width="3407" height="1987"/></clipPath></defs><g clip-path="url(#clip0)" transform="translate(-446 -140)"><path d="M617 1160C617 704.365 912.492 335 1277 335 1641.51 335 1937 704.365 1937 1160 1937 1615.64 1641.51 1985 1277 1985 912.492 1985 617 1615.64 617 1160Z" stroke="#000000" stroke-width="27.5" stroke-miterlimit="8" fill="none" fill-rule="evenodd"/><path d="M1277 140 1277 2120" stroke="#000000" stroke-width="13.75" stroke-miterlimit="8" stroke-dasharray="55 41.25" fill="none" fill-rule="evenodd"/><path d="M0 0 1650 0.000360892" stroke="#000000" stroke-width="13.75" stroke-miterlimit="8" stroke-dasharray="55 41.25" fill="none" fill-rule="evenodd" transform="matrix(-1 0 0 1 2103 1160)"/><path d="M6.875-5.01239e-06 6.87504 55-6.87496 55-6.875 5.01239e-06ZM6.87507 96.25 6.87511 151.25-6.87489 151.25-6.87493 96.25ZM6.87514 192.5 6.87518 247.5-6.87482 247.5-6.87486 192.5ZM6.87521 288.75 6.87525 343.75-6.87475 343.75-6.87479 288.75ZM6.87528 385 6.87532 440-6.87468 440-6.87472 385ZM6.87535 481.25 6.87536 495-6.87464 495-6.87465 481.25ZM-20.625 1.50372e-05C-20.625-11.3909-11.3909-20.625-1.50372e-05-20.625 11.3909-20.625 20.625-11.3909 20.625-1.50372e-05 20.625 11.3909 11.3909 20.625 1.50372e-05 20.625-11.3909 20.625-20.625 11.3909-20.625 1.50372e-05ZM20.6254 495C20.6254 506.391 11.3912 515.625 0.00037593 515.625-11.3905 515.625-20.6246 506.391-20.6246 495-20.6246 483.609-11.3905 474.375 0.000345855 474.375 11.3912 474.375 20.6254 483.609 20.6254 495Z" transform="matrix(1 0 0 -1 1277 1655)"/><path d="M974.995 426.438C1166.11 303.495 1393.15 304.586 1583.51 429.363L1277 1160Z" fill="#0070C0" fill-rule="evenodd" fill-opacity="0.501961"/><path d="M971.374 420.593 989.495 409.368 1007.92 398.814 1026.53 388.993 1045.32 379.906 1064.27 371.551 1083.38 363.931 1102.61 357.044 1121.97 350.892 1141.44 345.474 1161 340.791 1180.64 336.843 1200.35 333.63 1220.11 331.152 1239.91 329.409 1259.73 328.402 1279.57 328.129 1299.41 328.592 1319.23 329.79 1339.01 331.723 1358.76 334.391 1378.45 337.793 1398.06 341.93 1417.59 346.801 1437.02 352.405 1456.34 358.743 1475.54 365.814 1494.59 373.618 1513.49 382.154 1532.22 391.422 1550.77 401.421 1569.13 412.151 1587.18 423.55 1579.84 435.176 1561.89 423.84 1562.09 423.963 1543.94 413.352 1544.15 413.468 1525.8 403.583 1526.02 403.693 1507.5 394.532 1507.72 394.635 1489.04 386.2 1489.27 386.296 1470.44 378.585 1470.67 378.674 1451.71 371.688 1451.94 371.77 1432.86 365.509 1433.09 365.582 1413.9 360.047 1414.14 360.112 1394.86 355.302 1395.1 355.358 1375.73 351.274 1375.98 351.321 1356.54 347.962 1356.79 348 1337.3 345.366 1337.55 345.396 1318.02 343.488 1318.27 343.508 1298.7 342.325 1298.96 342.336 1279.38 341.879 1279.63 341.88 1260.05 342.149 1260.31 342.14 1240.73 343.135 1240.99 343.117 1221.44 344.838 1221.69 344.811 1202.18 347.257 1202.44 347.221 1182.98 350.393 1183.23 350.348 1163.83 354.246 1164.08 354.192 1144.76 358.817 1145 358.754 1125.78 364.105 1126.02 364.034 1106.9 370.111 1107.13 370.031 1088.13 376.834 1088.36 376.747 1069.48 384.277 1069.71 384.182 1050.98 392.438 1051.2 392.337 1032.63 401.319 1032.84 401.211 1014.44 410.92 1014.65 410.805 996.432 421.241 996.635 421.12 978.615 432.282ZM985.855 443.971C976.172 449.97 963.459 446.982 957.461 437.299 951.462 427.615 954.45 414.902 964.133 408.904 973.817 402.906 986.53 405.893 992.528 415.577 998.526 425.26 995.539 437.973 985.855 443.971ZM1594.52 411.924C1604.16 418.005 1607.03 430.743 1600.95 440.375 1594.87 450.006 1582.13 452.884 1572.5 446.802 1562.87 440.72 1559.99 427.982 1566.07 418.351 1572.15 408.719 1584.89 405.842 1594.52 411.924Z"/><path d="M1579.01 1893.56C1387.89 2016.51 1160.85 2015.41 970.488 1890.64L1277 1160Z" fill="#0070C0" fill-rule="evenodd" fill-opacity="0.501961"/><path d="M1582.63 1899.41 1564.51 1910.63 1546.08 1921.19 1527.47 1931.01 1508.68 1940.09 1489.73 1948.45 1470.62 1956.07 1451.39 1962.96 1432.03 1969.11 1412.56 1974.53 1393 1979.21 1373.36 1983.16 1353.65 1986.37 1333.89 1988.85 1314.09 1990.59 1294.27 1991.6 1274.43 1991.87 1254.59 1991.41 1234.77 1990.21 1214.99 1988.28 1195.24 1985.61 1175.55 1982.21 1155.94 1978.07 1136.41 1973.2 1116.98 1967.59 1097.66 1961.26 1078.46 1954.19 1059.41 1946.38 1040.51 1937.85 1021.78 1928.58 1003.23 1918.58 984.869 1907.85 966.818 1896.45 974.159 1884.82 992.11 1896.16 991.909 1896.04 1010.06 1906.65 1009.85 1906.53 1028.2 1916.42 1027.98 1916.31 1046.5 1925.47 1046.28 1925.36 1064.96 1933.8 1064.73 1933.7 1083.56 1941.42 1083.33 1941.33 1102.29 1948.31 1102.06 1948.23 1121.14 1954.49 1120.91 1954.42 1140.1 1959.95 1139.86 1959.89 1159.14 1964.7 1158.9 1964.64 1178.27 1968.73 1178.02 1968.68 1197.46 1972.04 1197.21 1972 1216.7 1974.63 1216.45 1974.6 1235.98 1976.51 1235.73 1976.49 1255.3 1977.68 1255.04 1977.66 1274.62 1978.12 1274.37 1978.12 1293.95 1977.85 1293.69 1977.86 1313.27 1976.87 1313.01 1976.88 1332.56 1975.16 1332.31 1975.19 1351.82 1972.74 1351.56 1972.78 1371.02 1969.61 1370.77 1969.65 1390.17 1965.75 1389.92 1965.81 1409.24 1961.18 1409 1961.25 1428.22 1955.9 1427.98 1955.97 1447.1 1949.89 1446.87 1949.97 1465.87 1943.17 1465.64 1943.25 1484.52 1935.72 1484.29 1935.82 1503.02 1927.56 1502.8 1927.66 1521.37 1918.68 1521.16 1918.79 1539.56 1909.08 1539.35 1909.2 1557.57 1898.76 1557.36 1898.88 1575.39 1887.72ZM1568.14 1876.03C1577.83 1870.03 1590.54 1873.02 1596.54 1882.7 1602.54 1892.39 1599.55 1905.1 1589.87 1911.1 1580.18 1917.09 1567.47 1914.11 1561.47 1904.42 1555.47 1894.74 1558.46 1882.03 1568.14 1876.03ZM959.476 1908.08C949.845 1901.99 946.967 1889.26 953.049 1879.63 959.131 1869.99 971.869 1867.12 981.5 1873.2 991.132 1879.28 994.009 1892.02 987.927 1901.65 981.846 1911.28 969.108 1914.16 959.476 1908.08Z"/><path d="M2726.44 425.029C2921.45 304.257 3138.31 305.019 3332.98 427.16L3028 1636Z" fill="#FFC000" fill-rule="evenodd" fill-opacity="0.501961"/><path d="M2722.91 419.128 2741.35 408.105 2760.01 397.744 2778.78 388.099 2797.67 379.171 2816.66 370.961 2835.74 363.469 2854.91 356.695 2874.16 350.641 2893.47 345.305 2912.85 340.69 2932.27 336.794 2951.74 333.619 2971.24 331.164 2990.77 329.431 3010.31 328.418 3029.86 328.126 3049.41 328.555 3068.95 329.705 3088.47 331.576 3107.97 334.168 3127.42 337.48 3146.84 341.512 3166.2 346.263 3185.5 351.734 3204.72 357.924 3223.87 364.831 3242.93 372.457 3261.9 380.8 3280.76 389.86 3299.51 399.636 3318.14 410.128 3336.54 421.28 3329.42 433.04 3311.1 421.945 3311.29 422.055 3292.86 411.671 3293.05 411.777 3274.5 402.104 3274.7 402.206 3256.05 393.244 3256.26 393.34 3237.5 385.09 3237.72 385.18 3218.87 377.642 3219.09 377.725 3200.17 370.898 3200.4 370.975 3181.4 364.86 3181.63 364.93 3162.56 359.525 3162.8 359.588 3143.68 354.895 3143.92 354.949 3124.75 350.968 3124.99 351.014 3105.78 347.744 3106.03 347.781 3086.79 345.223 3087.04 345.252 3067.77 343.405 3068.02 343.424 3048.73 342.289 3048.98 342.299 3029.69 341.875 3029.94 341.876 3010.64 342.164 3010.9 342.156 2991.6 343.156 2991.86 343.138 2972.58 344.849 2972.83 344.822 2953.58 347.246 2953.83 347.21 2934.61 350.345 2934.85 350.3 2915.67 354.147 2915.91 354.094 2896.78 358.652 2897.02 358.591 2877.94 363.862 2878.17 363.793 2859.15 369.776 2859.38 369.7 2840.44 376.394 2840.66 376.311 2821.79 383.717 2822.01 383.628 2803.23 391.746 2803.44 391.651 2784.76 400.482 2784.97 400.381 2766.39 409.924 2766.59 409.819 2748.12 420.073 2748.31 419.963 2729.96 430.93ZM2737.02 442.732C2727.24 448.576 2714.58 445.388 2708.73 435.611 2702.89 425.834 2706.08 413.17 2715.85 407.325 2725.63 401.481 2738.3 404.669 2744.14 414.446 2749.98 424.224 2746.8 436.887 2737.02 442.732ZM3343.67 409.52C3353.41 415.422 3356.52 428.104 3350.62 437.847 3344.72 447.589 3332.04 450.703 3322.29 444.8 3312.55 438.898 3309.44 426.216 3315.34 416.473 3321.24 406.731 3333.92 403.617 3343.67 409.52Z"/><path d="M2367 1160C2367 704.365 2662.49 335 3027 335 3391.51 335 3687 704.365 3687 1160 3687 1615.64 3391.51 1985 3027 1985 2662.49 1985 2367 1615.64 2367 1160Z" stroke="#000000" stroke-width="27.5" stroke-miterlimit="8" fill="none" fill-rule="evenodd"/><path d="M3027 140 3027 2120" stroke="#000000" stroke-width="13.75" stroke-miterlimit="8" stroke-dasharray="55 41.25" fill="none" fill-rule="evenodd"/><path d="M0 0 1650 0.000360892" stroke="#000000" stroke-width="13.75" stroke-miterlimit="8" stroke-dasharray="55 41.25" fill="none" fill-rule="evenodd" transform="matrix(-1 0 0 1 3853 1160)"/><path d="M6.875-5.01239e-06 6.87504 55-6.87496 55-6.875 5.01239e-06ZM6.87507 96.25 6.87511 151.25-6.87489 151.25-6.87493 96.25ZM6.87514 192.5 6.87518 247.5-6.87482 247.5-6.87486 192.5ZM6.87521 288.75 6.87525 343.75-6.87475 343.75-6.87479 288.75ZM6.87528 385 6.87532 440-6.87468 440-6.87472 385ZM6.87535 481.25 6.87536 495-6.87464 495-6.87465 481.25ZM-20.625 1.50372e-05C-20.625-11.3909-11.3909-20.625-1.50372e-05-20.625 11.3909-20.625 20.625-11.3909 20.625-1.50372e-05 20.625 11.3909 11.3909 20.625 1.50372e-05 20.625-11.3909 20.625-20.625 11.3909-20.625 1.50372e-05ZM20.6254 495C20.6254 506.391 11.3912 515.625 0.00037593 515.625-11.3905 515.625-20.6246 506.391-20.6246 495-20.6246 483.609-11.3905 474.375 0.000345855 474.375 11.3912 474.375 20.6254 483.609 20.6254 495Z" transform="matrix(1 0 0 -1 3027 1655)"/><path d="M3323.01 1894.62C3156.62 2016.37 2889.68 2014.93 2725.66 1891.41L3026.5 1669Z" fill="#FFC000" fill-rule="evenodd" fill-opacity="0.501961"/><path d="M3326.8 1900.36 3294.28 1921.87 3276.99 1931.67 3259.29 1940.7 3241.16 1948.99 3222.62 1956.54 3203.72 1963.36 3184.49 1969.45 3164.98 1974.8 3145.21 1979.43 3125.23 1983.32 3105.08 1986.49 3084.78 1988.93 3064.38 1990.63 3043.91 1991.61 3023.41 1991.87 3002.92 1991.39 2982.47 1990.19 2962.1 1988.27 2941.85 1985.61 2921.76 1982.23 2901.85 1978.12 2882.18 1973.28 2862.77 1967.72 2843.66 1961.42 2824.89 1954.4 2806.5 1946.64 2788.52 1938.16 2771 1928.94 2753.9 1918.96 2721.79 1897.09 2729.53 1885.73 2761.44 1907.46 2761.03 1907.2 2777.8 1916.99 2777.53 1916.85 2794.79 1925.92 2794.53 1925.79 2812.24 1934.15 2811.97 1934.03 2830.1 1941.67 2829.84 1941.57 2848.35 1948.5 2848.09 1948.4 2866.94 1954.61 2866.69 1954.53 2885.84 1960.03 2885.59 1959.96 2905.01 1964.74 2904.76 1964.68 2924.41 1968.74 2924.17 1968.69 2944.01 1972.03 2943.76 1971.99 2963.77 1974.62 2963.52 1974.59 2983.64 1976.49 2983.4 1976.47 3003.6 1977.66 3003.36 1977.65 3023.6 1978.12 3023.36 1978.12 3043.62 1977.87 3043.37 1977.87 3063.6 1976.91 3063.35 1976.92 3083.51 1975.23 3083.26 1975.26 3103.31 1972.85 3103.07 1972.89 3122.98 1969.76 3122.73 1969.8 3142.46 1965.96 3142.21 1966.01 3161.72 1961.44 3161.47 1961.51 3180.73 1956.22 3180.47 1956.3 3199.44 1950.29 3199.18 1950.38 3217.82 1943.65 3217.56 1943.75 3235.83 1936.31 3235.57 1936.42 3253.44 1928.25 3253.18 1928.38 3270.61 1919.49 3270.34 1919.64 3287.29 1910.03 3286.89 1910.27 3319.22 1888.89ZM3311.28 1877.66C3320.65 1871.18 3333.5 1873.52 3339.98 1882.89 3346.45 1892.26 3344.11 1905.11 3334.74 1911.59 3325.37 1918.07 3312.53 1915.72 3306.05 1906.35 3299.57 1896.98 3301.91 1884.14 3311.28 1877.66ZM2713.7 1908.22C2704.42 1901.61 2702.25 1888.74 2708.85 1879.45 2715.46 1870.17 2728.33 1868 2737.61 1874.6 2746.9 1881.21 2749.07 1894.08 2742.46 1903.37 2735.86 1912.65 2722.98 1914.82 2713.7 1908.22Z"/></g></svg>