<svg width="2064" height="1987" xmlns="http://www.w3.org/2000/svg" xmlns:xlink="http://www.w3.org/1999/xlink" xml:space="preserve" overflow="hidden"><defs><clipPath id="clip0"><rect x="1310" y="140" width="2064" height="1987"/></clipPath></defs><g clip-path="url(#clip0)" transform="translate(-1310 -140)"><path d="M1481 1160C1481 704.365 1776.49 335 2141 335 2505.51 335 2801 704.365 2801 1160 2801 1615.64 2505.51 1985 2141 1985 1776.49 1985 1481 1615.64 1481 1160Z" stroke="#000000" stroke-width="27.5" stroke-miterlimit="8" fill="none" fill-rule="evenodd"/><path d="M2141 140 2141 2120" stroke="#000000" stroke-width="13.75" stroke-miterlimit="8" stroke-dasharray="55 41.25" fill="none" fill-rule="evenodd"/><path d="M0 0 1650 0.000360892" stroke="#000000" stroke-width="13.75" stroke-miterlimit="8" stroke-dasharray="55 41.25" fill="none" fill-rule="evenodd" transform="matrix(-1 0 0 1 2967 1160)"/><path d="M6.875-5.01239e-06 6.87536 495-6.87464 495-6.875 5.01239e-06ZM-20.625 1.50372e-05C-20.625-11.3909-11.3909-20.625-1.50372e-05-20.625 11.3909-20.625 20.625-11.3909 20.625-1.50372e-05 20.625 11.3909 11.3909 20.625 1.50372e-05 20.625-11.3909 20.625-20.625 11.3909-20.625 1.50372e-05ZM20.6254 495C20.6254 506.391 11.3912 515.625 0.00037593 515.625-11.3905 515.625-20.6246 506.391-20.6246 495-20.6246 483.609-11.3905 474.375 0.000345855 474.375 11.3912 474.375 20.6254 483.609 20.6254 495Z" transform="matrix(1 0 0 -1 2141 1160)"/><path d="M6.875-5.01239e-06 6.87504 55-6.87496 55-6.875 5.01239e-06ZM6.87507 96.25 6.87511 151.25-6.87489 151.25-6.87493 96.25ZM6.87514 192.5 6.87518 247.5-6.87482 247.5-6.87486 192.5ZM6.87521 288.75 6.87525 343.75-6.87475 343.75-6.87479 288.75ZM6.87528 385 6.87532 440-6.87468 440-6.87472 385ZM6.87535 481.25 6.87536 495-6.87464 495-6.87465 481.25ZM-20.625 1.50372e-05C-20.625-11.3909-11.3909-20.625-1.50372e-05-20.625 11.3909-20.625 20.625-11.3909 20.625-1.50372e-05 20.625 11.3909 11.3909 20.625 1.50372e-05 20.625-11.3909 20.625-20.625 11.3909-20.625 1.50372e-05ZM20.6254 495C20.6254 506.391 11.3912 515.625 0.00037593 515.625-11.3905 515.625-20.6246 506.391-20.6246 495-20.6246 483.609-11.3905 474.375 0.000345855 474.375 11.3912 474.375 20.6254 483.609 20.6254 495Z" transform="matrix(1 0 0 -1 2141 1655)"/><path d="M6.72948-1.40705 270.663 1260.9 257.204 1263.72-6.72948 1.40705ZM-20.1884 4.22116C-22.5197-6.9286-15.3709-17.8571-4.22116-20.1884 6.9286-22.5197 17.8571-15.3709 20.1884-4.22116 22.5197 6.9286 15.3709 17.8571 4.22116 20.1884-6.9286 22.5197-17.8571 15.3709-20.1884 4.22116ZM284.122 1258.09C286.453 1269.24 279.304 1280.17 268.154 1282.5 257.005 1284.83 246.076 1277.68 243.745 1266.53 241.414 1255.38 248.562 1244.45 259.712 1242.12 270.862 1239.79 281.79 1246.94 284.122 1258.09Z" transform="matrix(1 0 0 -1 1877 1927.31)"/><path d="M4.93669-4.78484 268.87 267.524 258.997 277.094-4.93669 4.78484ZM-14.8101 14.3545C-22.7379 6.17514-22.5339-6.88229-14.3545-14.8101-6.17514-22.7379 6.88229-22.5339 14.8101-14.3545 22.7379-6.17514 22.5339 6.88229 14.3545 14.8101 6.17514 22.7379-6.88229 22.5339-14.8101 14.3545ZM278.743 257.955C286.671 266.134 286.467 279.191 278.288 287.119 270.108 295.047 257.051 294.843 249.123 286.664 241.195 278.484 241.399 265.427 249.579 257.499 257.758 249.571 270.816 249.775 278.743 257.955Z" transform="matrix(1 0 0 -1 1877 1927.31)"/><path d="M2796.88 1165.5 2752.88 1132.5 2761.13 1121.5 2805.13 1154.5ZM2719.88 1107.75 2675.88 1074.75 2684.13 1063.75 2728.13 1096.75ZM2642.88 1050 2598.88 1017 2607.13 1006 2651.13 1039ZM2565.88 992.25 2521.88 959.25 2530.13 948.25 2574.13 981.25ZM2488.88 934.5 2444.88 901.5 2453.13 890.5 2497.13 923.5ZM2411.88 876.75 2367.88 843.75 2376.13 832.75 2420.13 865.75ZM2334.88 819 2290.88 786 2299.13 775 2343.13 808ZM2257.88 761.25 2213.88 728.25 2222.13 717.25 2266.13 750.25ZM2180.88 703.5 2136.88 670.5 2145.13 659.5 2189.13 692.5ZM2813.38 1143.5C2822.49 1150.34 2824.33 1163.26 2817.5 1172.38 2810.67 1181.49 2797.74 1183.33 2788.63 1176.5 2779.51 1169.67 2777.67 1156.74 2784.5 1147.63 2791.33 1138.51 2804.26 1136.67 2813.38 1143.5ZM2128.62 681.5C2119.51 674.666 2117.67 661.738 2124.5 652.625 2131.33 643.512 2144.26 641.666 2153.38 648.5 2162.49 655.335 2164.33 668.262 2157.5 677.375 2150.67 686.488 2137.74 688.335 2128.62 681.5Z"/><path d="M2975.7 728.483C2972.92 728.483 2970.42 729.604 2968.2 731.847 2965.99 734.089 2964.26 737.095 2963.02 740.864 2961.77 744.633 2961.15 748.396 2961.15 752.151 2961.15 754.961 2961.54 757.062 2962.31 758.453 2963.08 759.845 2964.37 760.54 2966.18 760.54 2967.96 760.54 2969.71 759.77 2971.43 758.23 2973.14 756.69 2974.91 754.495 2976.74 751.645 2978.56 748.794 2979.85 745.505 2980.61 741.776L2980.97 740.034C2981.21 738.926 2981.38 737.967 2981.46 737.156 2981.54 736.346 2981.58 735.467 2981.58 734.522 2981.58 732.441 2981.13 730.915 2980.24 729.942 2979.35 728.97 2977.84 728.483 2975.7 728.483ZM2974.89 725.282C2976.65 725.282 2978.29 725.477 2979.82 725.869 2981.34 726.261 2982.92 726.957 2984.54 727.956L2988.27 725.282 2990.86 725.93 2984.9 751.624C2984.31 754.191 2984.01 756.19 2984.01 757.622 2984.01 758.703 2984.19 759.487 2984.54 759.973 2984.89 760.459 2985.44 760.702 2986.2 760.702 2987.01 760.702 2987.87 760.371 2988.79 759.71 2989.71 759.048 2991.01 757.784 2992.68 755.92L2994.99 758.19C2992.56 760.784 2990.49 762.628 2988.77 763.722 2987.06 764.816 2985.2 765.363 2983.2 765.363 2981.52 765.363 2980.19 764.809 2979.19 763.701 2978.19 762.594 2977.69 761.121 2977.69 759.284 2977.69 757.798 2978 756.217 2978.62 754.542L2978.09 754.38C2975.5 758.163 2973.04 760.932 2970.72 762.688 2968.39 764.444 2965.93 765.323 2963.34 765.323 2960.37 765.323 2958.07 764.201 2956.43 761.959 2954.8 759.716 2953.98 756.569 2953.98 752.516 2953.98 747.869 2954.89 743.404 2956.71 739.122 2958.54 734.839 2961.04 731.462 2964.23 728.99 2967.42 726.518 2970.97 725.282 2974.89 725.282Z" fill-rule="evenodd"/><text fill="#000000" fill-opacity="0" font-family="Arial,Arial_MSFontService,sans-serif" font-size="40.0815" x="2953.98" y="760.353">𝑎</text><path d="M3026.53 746.721 3076.46 746.721 3076.46 752.111 3026.53 752.111ZM3026.53 729.902 3076.46 729.902 3076.46 735.292 3026.53 735.292Z" fill-rule="evenodd"/><text fill="#000000" fill-opacity="0" font-family="Arial,Arial_MSFontService,sans-serif" font-size="22.209" x="3026.53" y="749.335">=</text><path d="M3126.15 644.313 3128.54 644.313 3118.57 689.176C3117.98 691.851 3117.68 693.851 3117.68 695.174 3117.68 696.255 3117.86 697.039 3118.21 697.525 3118.56 698.011 3119.12 698.255 3119.87 698.255 3120.68 698.255 3121.55 697.924 3122.47 697.262 3123.38 696.6 3124.68 695.337 3126.36 693.472L3128.67 695.742C3126.05 698.498 3123.9 700.382 3122.24 701.395 3120.58 702.409 3118.72 702.915 3116.67 702.915 3114.91 702.915 3113.51 702.274 3112.46 700.99 3111.4 699.707 3110.87 698.065 3110.87 696.066 3110.87 694.256 3111.25 691.635 3112.01 688.204L3119.26 655.741C3119.59 654.309 3119.82 653.168 3119.95 652.317 3120.09 651.466 3120.16 650.675 3120.16 649.946 3120.16 649.135 3120.01 648.521 3119.71 648.102 3119.41 647.683 3118.99 647.379 3118.43 647.19 3117.88 647.001 3116.89 646.866 3115.45 646.785L3115.94 644.677Z" fill-rule="evenodd"/><text fill="#000000" fill-opacity="0" font-family="Arial,Arial_MSFontService,sans-serif" font-size="58.6025" x="3110.87" y="695.59">𝑙</text><path d="M3149.27 680.747 3151.08 680.747C3151.04 681.839 3151.01 682.817 3150.99 683.681 3150.97 684.545 3150.96 685.384 3150.95 686.198 3150.94 687.012 3150.93 687.816 3150.93 688.611L3150.93 711.247C3150.93 711.863 3150.95 712.394 3150.99 712.841 3151.03 713.288 3151.1 713.665 3151.19 713.973 3151.28 714.28 3151.4 714.543 3151.54 714.762 3151.69 714.98 3151.87 715.169 3152.07 715.328 3152.3 715.566 3152.62 715.75 3153.02 715.879 3153.42 716.008 3153.92 716.117 3154.54 716.206 3155.15 716.296 3155.89 716.365 3156.76 716.415 3157.62 716.465 3158.66 716.499 3159.87 716.519L3159.87 719.111 3136.25 719.111 3136.25 716.519C3137.42 716.479 3138.41 716.435 3139.23 716.385 3140.04 716.336 3140.74 716.266 3141.31 716.177 3141.89 716.087 3142.35 715.988 3142.7 715.879 3143.05 715.77 3143.35 715.636 3143.61 715.477 3143.89 715.298 3144.12 715.104 3144.32 714.896 3144.52 714.687 3144.68 714.424 3144.8 714.107 3144.92 713.789 3145.01 713.402 3145.08 712.945 3145.15 712.488 3145.19 711.922 3145.19 711.247L3145.19 689.891C3145.19 689.117 3145.04 688.571 3144.74 688.253 3144.44 687.935 3144.01 687.777 3143.46 687.777 3142.84 687.777 3141.93 688.094 3140.72 688.73 3139.51 689.365 3137.94 690.308 3136.01 691.559 3135.75 691.103 3135.52 690.646 3135.3 690.189 3135.08 689.732 3134.85 689.266 3134.61 688.789 3137.07 687.439 3139.51 686.094 3141.92 684.753 3144.34 683.413 3146.78 682.078 3149.27 680.747Z" fill-rule="evenodd"/><text fill="#000000" fill-opacity="0" font-family="Arial,Arial_MSFontService,sans-serif" font-size="38.3633" x="3134.61" y="714.315">1</text><path d="M3213.98 652.499 3219.74 652.499 3219.74 675.843 3241.83 675.843 3241.83 681.233 3219.74 681.233 3219.74 704.577 3213.98 704.577 3213.98 681.233 3191.9 681.233 3191.9 675.843 3213.98 675.843Z" fill-rule="evenodd"/><text fill="#000000" fill-opacity="0" font-family="Arial,Arial_MSFontService,sans-serif" font-size="52.0776" x="3191.9" y="698.067">+</text><path d="M3286.94 644.313 3289.33 644.313 3279.36 689.176C3278.76 691.851 3278.47 693.851 3278.47 695.174 3278.47 696.255 3278.64 697.039 3278.99 697.525 3279.34 698.011 3279.9 698.255 3280.66 698.255 3281.47 698.255 3282.33 697.924 3283.25 697.262 3284.17 696.6 3285.46 695.337 3287.14 693.472L3289.45 695.742C3286.83 698.498 3284.69 700.382 3283.03 701.395 3281.36 702.409 3279.51 702.915 3277.45 702.915 3275.7 702.915 3274.29 702.274 3273.24 700.99 3272.18 699.707 3271.66 698.065 3271.66 696.066 3271.66 694.256 3272.04 691.635 3272.79 688.204L3280.05 655.741C3280.37 654.309 3280.6 653.168 3280.74 652.317 3280.87 651.466 3280.94 650.675 3280.94 649.946 3280.94 649.135 3280.79 648.521 3280.49 648.102 3280.2 647.683 3279.77 647.379 3279.22 647.19 3278.66 647.001 3277.67 646.866 3276.24 646.785L3276.72 644.677Z" fill-rule="evenodd"/><text fill="#000000" fill-opacity="0" font-family="Arial,Arial_MSFontService,sans-serif" font-size="58.6025" x="3271.66" y="695.59">𝑙</text><path d="M3309.63 680.539C3311.69 680.539 3313.46 680.772 3314.92 681.239 3316.37 681.705 3317.56 682.336 3318.47 683.13 3319.39 683.924 3320.05 684.877 3320.46 685.989 3320.86 687.101 3321.07 688.303 3321.07 689.593 3321.07 690.368 3321.01 691.088 3320.9 691.753 3320.79 692.418 3320.6 693.073 3320.34 693.719 3320.07 694.364 3319.72 695.014 3319.28 695.67 3318.84 696.325 3318.3 697.02 3317.64 697.755 3317.14 698.39 3316.5 699.125 3315.7 699.959 3314.91 700.793 3314.04 701.686 3313.1 702.639 3312.16 703.592 3311.17 704.585 3310.13 705.618 3309.1 706.65 3308.1 707.673 3307.13 708.686 3306.15 709.698 3305.26 710.681 3304.45 711.634 3303.63 712.588 3302.97 713.461 3302.45 714.256L3313.47 714.256C3314.4 714.256 3315.15 714.221 3315.7 714.151 3316.26 714.082 3316.72 713.928 3317.09 713.69 3317.46 713.451 3317.77 713.089 3318.03 712.602 3318.29 712.116 3318.58 711.446 3318.92 710.592L3321.69 710.592C3321.59 712.002 3321.5 713.422 3321.41 714.851 3321.32 716.281 3321.22 717.701 3321.13 719.111L3295.9 719.111 3295.9 717.562C3296.37 716.489 3296.93 715.432 3297.57 714.39 3298.2 713.347 3298.92 712.29 3299.71 711.217 3300.5 710.145 3301.41 709.038 3302.42 707.896 3303.43 706.755 3304.55 705.568 3305.79 704.337 3307.65 702.471 3309.17 700.877 3310.34 699.557 3311.51 698.236 3312.44 697.06 3313.11 696.027 3313.79 694.995 3314.25 694.041 3314.5 693.168 3314.75 692.294 3314.87 691.361 3314.87 690.368 3314.87 689.355 3314.73 688.422 3314.44 687.568 3314.15 686.714 3313.74 685.989 3313.2 685.394 3312.67 684.798 3311.99 684.331 3311.16 683.994 3310.34 683.656 3309.39 683.487 3308.32 683.487 3306.47 683.487 3304.92 683.989 3303.67 684.992 3302.42 685.994 3301.45 687.449 3300.75 689.355L3296.85 689.355 3296.85 683.547C3299.39 682.495 3301.73 681.73 3303.86 681.254 3306 680.777 3307.92 680.539 3309.63 680.539Z" fill-rule="evenodd"/><text fill="#000000" fill-opacity="0" font-family="Arial,Arial_MSFontService,sans-serif" font-size="38.5718" x="3295.9" y="714.289">2</text><path d="M3218.12 763.93C3223.15 763.93 3226.94 765.031 3229.51 767.233 3232.08 769.435 3233.36 772.63 3233.36 776.817 3233.36 778.249 3233.22 779.567 3232.93 780.769 3232.65 781.971 3232.2 783.16 3231.6 784.335 3230.99 785.511 3230.17 786.774 3229.14 788.125 3228.12 789.475 3226.98 790.847 3225.74 792.238 3224.5 793.63 3222.35 795.946 3219.3 799.189 3214.16 804.619 3210.39 809.361 3207.99 813.414L3223.27 813.414C3224.59 813.414 3225.66 813.333 3226.47 813.17 3227.28 813.008 3227.93 812.738 3228.41 812.36 3228.9 811.982 3229.29 811.489 3229.57 810.881 3229.85 810.273 3230.21 809.334 3230.64 808.064L3234.09 808.064 3233.4 819.898 3200.05 819.898 3200.05 817.953C3201.21 815.116 3202.77 812.211 3204.75 809.239 3206.72 806.267 3209.52 802.768 3213.14 798.743 3216.27 795.284 3218.53 792.664 3219.9 790.88 3221.42 788.935 3222.54 787.253 3223.29 785.835 3224.03 784.416 3224.56 783.079 3224.89 781.823 3225.21 780.566 3225.38 779.303 3225.38 778.033 3225.38 776.007 3225.05 774.217 3224.4 772.663 3223.75 771.11 3222.76 769.887 3221.42 768.996 3220.09 768.104 3218.4 767.658 3216.38 767.658 3211.33 767.658 3207.92 770.468 3206.17 776.088L3201.26 776.088 3201.26 768.307C3204.53 766.767 3207.59 765.652 3210.44 764.963 3213.29 764.274 3215.85 763.93 3218.12 763.93Z" fill-rule="evenodd"/><text fill="#000000" fill-opacity="0" font-family="Arial,Arial_MSFontService,sans-serif" font-size="55.9683" x="3200.05" y="812.902">2</text><path d="M3105.16 738.715 3180.16 738.715 3255.16 738.715 3330.16 738.715 3330.16 743.715 3255.16 743.715 3180.16 743.715 3105.16 743.715Z" fill-rule="evenodd"/><path d="M2185.76 944.909C2182.98 944.909 2180.48 946.031 2178.26 948.273 2176.05 950.516 2174.32 953.521 2173.07 957.29 2171.83 961.059 2171.21 964.822 2171.21 968.577 2171.21 971.387 2171.59 973.488 2172.36 974.879 2173.13 976.271 2174.42 976.966 2176.24 976.966 2178.02 976.966 2179.77 976.196 2181.48 974.656 2183.2 973.116 2184.97 970.921 2186.79 968.071 2188.62 965.22 2189.91 961.931 2190.66 958.202L2191.03 956.46C2191.27 955.352 2191.43 954.393 2191.51 953.582 2191.59 952.772 2191.64 951.893 2191.64 950.948 2191.64 948.867 2191.19 947.341 2190.3 946.368 2189.41 945.396 2187.89 944.909 2185.76 944.909ZM2184.95 941.708C2186.7 941.708 2188.35 941.904 2189.87 942.295 2191.4 942.687 2192.97 943.383 2194.59 944.382L2198.32 941.708 2200.92 942.356 2194.96 968.05C2194.36 970.617 2194.07 972.617 2194.07 974.048 2194.07 975.129 2194.24 975.913 2194.59 976.399 2194.95 976.885 2195.5 977.129 2196.26 977.129 2197.07 977.129 2197.93 976.798 2198.85 976.136 2199.77 975.474 2201.06 974.211 2202.74 972.346L2205.05 974.616C2202.62 977.21 2200.54 979.054 2198.83 980.148 2197.11 981.242 2195.26 981.789 2193.26 981.789 2191.58 981.789 2190.24 981.235 2189.24 980.128 2188.24 979.02 2187.74 977.547 2187.74 975.71 2187.74 974.224 2188.06 972.643 2188.68 970.968L2188.15 970.806C2185.56 974.589 2183.1 977.358 2180.77 979.114 2178.45 980.871 2175.99 981.749 2173.4 981.749 2170.43 981.749 2168.12 980.627 2166.49 978.385 2164.85 976.142 2164.04 972.995 2164.04 968.942 2164.04 964.295 2164.95 959.83 2166.77 955.548 2168.6 951.265 2171.1 947.888 2174.29 945.416 2177.48 942.944 2181.03 941.708 2184.95 941.708Z" fill-rule="evenodd"/><text fill="#000000" fill-opacity="0" font-family="Arial,Arial_MSFontService,sans-serif" font-size="40.0815" x="2164.04" y="976.779">𝑎</text><path d="M2237.68 952.488C2239.05 952.488 2240.18 952.947 2241.06 953.866 2241.94 954.784 2242.38 955.973 2242.38 957.432 2242.38 958.891 2241.94 960.08 2241.06 960.999 2240.18 961.917 2239.05 962.377 2237.68 962.377 2236.3 962.377 2235.17 961.917 2234.29 960.999 2233.41 960.08 2232.98 958.891 2232.98 957.432 2232.98 955.973 2233.41 954.784 2234.29 953.866 2235.17 952.947 2236.3 952.488 2237.68 952.488Z" fill-rule="evenodd"/><text fill="#000000" fill-opacity="0" font-family="Arial,Arial_MSFontService,sans-serif" font-size="9.88867" x="2232.98" y="961.141">⋅</text><path d="M2293.85 944.909C2291.12 944.909 2288.49 946.287 2285.96 949.043 2283.44 951.799 2281.5 955.527 2280.15 960.229 2283.96 960.202 2287.23 959.857 2289.96 959.195 2292.68 958.533 2294.78 957.48 2296.24 956.034 2297.7 954.589 2298.43 952.637 2298.43 950.178 2298.43 948.53 2298.04 947.24 2297.27 946.307 2296.5 945.375 2295.36 944.909 2293.85 944.909ZM2295.31 941.708C2298.57 941.708 2301.03 942.37 2302.66 943.693 2304.3 945.017 2305.11 947.084 2305.11 949.894 2305.11 954.487 2302.96 957.932 2298.65 960.229 2294.34 962.525 2287.94 963.673 2279.46 963.673 2279.13 965.295 2278.97 967.051 2278.97 968.942 2278.97 971.779 2279.53 973.839 2280.63 975.122 2281.74 976.406 2283.55 977.047 2286.06 977.047 2288.55 977.047 2290.8 976.507 2292.81 975.426 2294.83 974.346 2296.95 972.684 2299.2 970.442L2301.71 973.076C2299.09 975.967 2296.43 978.142 2293.74 979.601 2291.06 981.06 2287.93 981.789 2284.36 981.789 2280.45 981.789 2277.41 980.594 2275.26 978.203 2273.12 975.811 2272.04 972.481 2272.04 968.213 2272.04 965.322 2272.56 962.221 2273.6 958.911 2274.64 955.602 2276.22 952.63 2278.32 949.995 2280.43 947.361 2282.96 945.321 2285.9 943.876 2288.85 942.43 2291.98 941.708 2295.31 941.708Z" fill-rule="evenodd"/><text fill="#000000" fill-opacity="0" font-family="Arial,Arial_MSFontService,sans-serif" font-size="40.0815" x="2272.04" y="976.779">𝑒</text><path d="M2444.72 1229.7C2443.42 1229.7 2442.14 1230.12 2440.89 1230.94 2439.63 1231.76 2438.23 1233.13 2436.69 1235.03 2435.15 1236.94 2433.9 1238.89 2432.92 1240.89 2431.95 1242.89 2431.13 1245.44 2430.45 1248.55L2430.09 1250.25C2429.68 1252.14 2429.48 1253.98 2429.48 1255.76 2429.48 1257.9 2429.94 1259.44 2430.88 1260.38 2431.81 1261.33 2433.36 1261.8 2435.52 1261.8 2436.62 1261.8 2437.68 1261.62 2438.68 1261.26 2439.68 1260.89 2440.7 1260.29 2441.74 1259.45 2442.78 1258.61 2443.76 1257.51 2444.7 1256.15 2445.63 1254.78 2446.49 1253.1 2447.27 1251.1 2448.05 1249.1 2448.66 1246.96 2449.09 1244.68 2449.53 1242.4 2449.74 1240.21 2449.74 1238.13 2449.74 1235.32 2449.34 1233.22 2448.55 1231.81 2447.75 1230.41 2446.47 1229.7 2444.72 1229.7ZM2437.62 1206.4 2439.97 1206.4 2432.84 1234.77 2433.37 1234.93C2435.99 1231.42 2438.45 1228.88 2440.74 1227.31 2443.04 1225.75 2445.34 1224.96 2447.63 1224.96 2450.58 1224.96 2452.87 1226.08 2454.5 1228.33 2456.14 1230.57 2456.96 1233.73 2456.96 1237.81 2456.96 1242.27 2456.06 1246.65 2454.26 1250.96 2452.46 1255.27 2449.97 1258.69 2446.78 1261.21 2443.59 1263.74 2440.03 1265 2436.08 1265 2432.49 1265 2429.3 1264.13 2426.52 1262.37L2422.79 1265 2420.2 1264.36 2430.69 1218.03C2431.32 1215.28 2431.63 1213.28 2431.63 1212.03 2431.63 1210.9 2431.28 1210.1 2430.59 1209.64 2429.9 1209.18 2428.67 1208.93 2426.88 1208.87L2427.37 1206.77Z" fill-rule="evenodd"/><text fill="#000000" fill-opacity="0" font-family="Arial,Arial_MSFontService,sans-serif" font-size="58.6025" x="2420.2" y="1257.68">𝑏</text><path d="M1932.29 1195.5 1934.68 1195.5 1924.71 1240.36C1924.11 1243.03 1923.82 1245.03 1923.82 1246.36 1923.82 1247.44 1923.99 1248.22 1924.34 1248.71 1924.69 1249.19 1925.25 1249.44 1926 1249.44 1926.81 1249.44 1927.68 1249.11 1928.6 1248.44 1929.52 1247.78 1930.81 1246.52 1932.49 1244.66L1934.8 1246.93C1932.18 1249.68 1930.04 1251.57 1928.37 1252.58 1926.71 1253.59 1924.86 1254.1 1922.8 1254.1 1921.05 1254.1 1919.64 1253.46 1918.59 1252.17 1917.53 1250.89 1917.01 1249.25 1917.01 1247.25 1917.01 1245.44 1917.39 1242.82 1918.14 1239.39L1925.4 1206.92C1925.72 1205.49 1925.95 1204.35 1926.08 1203.5 1926.22 1202.65 1926.29 1201.86 1926.29 1201.13 1926.29 1200.32 1926.14 1199.7 1925.84 1199.29 1925.54 1198.87 1925.12 1198.56 1924.57 1198.37 1924.01 1198.18 1923.02 1198.05 1921.59 1197.97L1922.07 1195.86Z" fill-rule="evenodd"/><text fill="#000000" fill-opacity="0" font-family="Arial,Arial_MSFontService,sans-serif" font-size="58.6025" x="1917.01" y="1246.77">𝑙</text><path d="M1955.4 1231.93 1957.22 1231.93C1957.18 1233.02 1957.15 1234 1957.13 1234.86 1957.11 1235.73 1957.09 1236.57 1957.08 1237.38 1957.07 1238.2 1957.07 1239 1957.07 1239.79L1957.07 1262.43C1957.07 1263.05 1957.09 1263.58 1957.13 1264.02 1957.17 1264.47 1957.23 1264.85 1957.32 1265.16 1957.41 1265.46 1957.53 1265.73 1957.68 1265.95 1957.83 1266.16 1958 1266.35 1958.2 1266.51 1958.44 1266.75 1958.75 1266.93 1959.15 1267.06 1959.55 1267.19 1960.05 1267.3 1960.67 1267.39 1961.29 1267.48 1962.03 1267.55 1962.89 1267.6 1963.75 1267.65 1964.79 1267.68 1966 1267.7L1966 1270.29 1942.38 1270.29 1942.38 1267.7C1943.55 1267.66 1944.55 1267.62 1945.36 1267.57 1946.17 1267.52 1946.87 1267.45 1947.45 1267.36 1948.02 1267.27 1948.48 1267.17 1948.83 1267.06 1949.18 1266.95 1949.48 1266.82 1949.74 1266.66 1950.02 1266.48 1950.26 1266.29 1950.45 1266.08 1950.65 1265.87 1950.81 1265.61 1950.93 1265.29 1951.05 1264.97 1951.14 1264.58 1951.21 1264.13 1951.28 1263.67 1951.32 1263.11 1951.32 1262.43L1951.32 1241.07C1951.32 1240.3 1951.17 1239.75 1950.87 1239.44 1950.57 1239.12 1950.15 1238.96 1949.59 1238.96 1948.97 1238.96 1948.06 1239.28 1946.85 1239.91 1945.64 1240.55 1944.07 1241.49 1942.14 1242.74 1941.89 1242.29 1941.65 1241.83 1941.43 1241.37 1941.21 1240.92 1940.98 1240.45 1940.74 1239.97 1943.21 1238.62 1945.64 1237.28 1948.06 1235.94 1950.47 1234.6 1952.92 1233.26 1955.4 1231.93Z" fill-rule="evenodd"/><text fill="#000000" fill-opacity="0" font-family="Arial,Arial_MSFontService,sans-serif" font-size="38.3633" x="1940.74" y="1265.5">1</text><path d="M2043.63 1791.72 2046.02 1791.72 2036.05 1836.58C2035.46 1839.26 2035.16 1841.25 2035.16 1842.58 2035.16 1843.66 2035.34 1844.44 2035.69 1844.93 2036.04 1845.42 2036.59 1845.66 2037.35 1845.66 2038.16 1845.66 2039.03 1845.33 2039.94 1844.67 2040.86 1844 2042.16 1842.74 2043.84 1840.88L2046.15 1843.15C2043.52 1845.9 2041.38 1847.79 2039.72 1848.8 2038.06 1849.81 2036.2 1850.32 2034.15 1850.32 2032.39 1850.32 2030.99 1849.68 2029.93 1848.39 2028.88 1847.11 2028.35 1845.47 2028.35 1843.47 2028.35 1841.66 2028.73 1839.04 2029.49 1835.61L2036.74 1803.15C2037.07 1801.71 2037.3 1800.57 2037.43 1799.72 2037.57 1798.87 2037.63 1798.08 2037.63 1797.35 2037.63 1796.54 2037.49 1795.92 2037.19 1795.51 2036.89 1795.09 2036.47 1794.78 2035.91 1794.59 2035.36 1794.41 2034.37 1794.27 2032.93 1794.19L2033.42 1792.08Z" fill-rule="evenodd"/><text fill="#000000" fill-opacity="0" font-family="Arial,Arial_MSFontService,sans-serif" font-size="58.6025" x="2028.35" y="1842.99">𝑙</text><path d="M2066.32 1827.94C2068.39 1827.94 2070.15 1828.18 2071.61 1828.64 2073.07 1829.11 2074.26 1829.74 2075.17 1830.53 2076.08 1831.33 2076.74 1832.28 2077.15 1833.39 2077.56 1834.51 2077.76 1835.71 2077.76 1837 2077.76 1837.77 2077.71 1838.49 2077.6 1839.16 2077.49 1839.82 2077.3 1840.48 2077.03 1841.12 2076.76 1841.77 2076.41 1842.42 2075.97 1843.07 2075.54 1843.73 2074.99 1844.42 2074.34 1845.16 2073.84 1845.79 2073.19 1846.53 2072.4 1847.36 2071.61 1848.2 2070.74 1849.09 2069.79 1850.04 2068.85 1851 2067.86 1851.99 2066.83 1853.02 2065.8 1854.05 2064.8 1855.08 2063.82 1856.09 2062.85 1857.1 2061.96 1858.09 2061.14 1859.04 2060.33 1859.99 2059.66 1860.87 2059.15 1861.66L2070.17 1861.66C2071.1 1861.66 2071.84 1861.62 2072.4 1861.56 2072.96 1861.49 2073.42 1861.33 2073.79 1861.09 2074.15 1860.86 2074.47 1860.49 2074.72 1860.01 2074.98 1859.52 2075.28 1858.85 2075.62 1858L2078.39 1858C2078.29 1859.41 2078.19 1860.83 2078.1 1862.26 2078.01 1863.68 2077.92 1865.1 2077.82 1866.51L2052.59 1866.51 2052.59 1864.97C2053.07 1863.89 2053.63 1862.84 2054.26 1861.79 2054.9 1860.75 2055.61 1859.69 2056.41 1858.62 2057.2 1857.55 2058.1 1856.44 2059.12 1855.3 2060.13 1854.16 2061.25 1852.97 2062.48 1851.74 2064.35 1849.87 2065.87 1848.28 2067.04 1846.96 2068.21 1845.64 2069.13 1844.46 2069.81 1843.43 2070.48 1842.4 2070.95 1841.45 2071.19 1840.57 2071.44 1839.7 2071.57 1838.76 2071.57 1837.77 2071.57 1836.76 2071.42 1835.83 2071.13 1834.97 2070.85 1834.12 2070.43 1833.39 2069.9 1832.8 2069.36 1832.2 2068.68 1831.74 2067.86 1831.4 2067.03 1831.06 2066.09 1830.89 2065.01 1830.89 2063.17 1830.89 2061.62 1831.39 2060.37 1832.4 2059.12 1833.4 2058.14 1834.85 2057.45 1836.76L2053.55 1836.76 2053.55 1830.95C2056.09 1829.9 2058.43 1829.13 2060.56 1828.66 2062.7 1828.18 2064.62 1827.94 2066.32 1827.94Z" fill-rule="evenodd"/><text fill="#000000" fill-opacity="0" font-family="Arial,Arial_MSFontService,sans-serif" font-size="38.5718" x="2052.59" y="1861.69">2</text><path d="M2847.5 370.5C2863.79 370.5 2877 409.81 2877 458.302L2877 660.198C2877 708.69 2890.21 748 2906.5 748 2890.21 748 2877 787.31 2877 835.802L2877 1037.7C2877 1086.19 2863.79 1125.5 2847.5 1125.5" stroke="#000000" stroke-width="6.875" stroke-miterlimit="8" fill="none" fill-rule="evenodd"/><path d="M2506.86 840.599C2504.08 840.599 2501.58 841.72 2499.36 843.963 2497.15 846.205 2495.42 849.211 2494.17 852.98 2492.93 856.749 2492.31 860.511 2492.31 864.267 2492.31 867.077 2492.69 869.177 2493.46 870.569 2494.23 871.96 2495.52 872.656 2497.34 872.656 2499.12 872.656 2500.87 871.886 2502.58 870.346 2504.3 868.806 2506.07 866.611 2507.89 863.76 2509.72 860.91 2511.01 857.62 2511.76 853.892L2512.13 852.149C2512.37 851.041 2512.53 850.082 2512.61 849.272 2512.7 848.461 2512.74 847.583 2512.74 846.637 2512.74 844.557 2512.29 843.03 2511.4 842.058 2510.51 841.085 2508.99 840.599 2506.86 840.599ZM2506.05 837.397C2507.8 837.397 2509.45 837.593 2510.97 837.985 2512.5 838.377 2514.07 839.072 2515.69 840.072L2519.42 837.397 2522.02 838.046 2516.06 863.74C2515.46 866.307 2515.17 868.306 2515.17 869.738 2515.17 870.819 2515.34 871.602 2515.69 872.089 2516.05 872.575 2516.6 872.818 2517.36 872.818 2518.17 872.818 2519.03 872.487 2519.95 871.825 2520.87 871.163 2522.17 869.9 2523.84 868.036L2526.15 870.305C2523.72 872.899 2521.64 874.743 2519.93 875.837 2518.21 876.932 2516.36 877.479 2514.36 877.479 2512.68 877.479 2511.34 876.925 2510.34 875.817 2509.34 874.709 2508.84 873.237 2508.84 871.4 2508.84 869.914 2509.16 868.333 2509.78 866.658L2509.25 866.496C2506.66 870.278 2504.2 873.048 2501.87 874.804 2499.55 876.56 2497.09 877.438 2494.5 877.438 2491.53 877.438 2489.22 876.317 2487.59 874.074 2485.95 871.832 2485.14 868.684 2485.14 864.632 2485.14 859.984 2486.05 855.52 2487.87 851.237 2489.7 846.955 2492.2 843.578 2495.39 841.105 2498.58 838.633 2502.13 837.397 2506.05 837.397Z" fill-rule="evenodd"/><text fill="#000000" fill-opacity="0" font-family="Arial,Arial_MSFontService,sans-serif" font-size="40.0815" x="2485.14" y="872.469">𝑎</text><text font-family="Aptos,Aptos_MSFontService,sans-serif" font-weight="700" font-size="110" transform="matrix(1 0 0 1 2164.64 611)">F</text><text font-family="Aptos,Aptos_MSFontService,sans-serif" font-weight="700" font-size="73" transform="matrix(1 0 0 1 2223.65 638)">1</text><text font-family="Aptos,Aptos_MSFontService,sans-serif" font-weight="700" font-size="110" transform="matrix(1 0 0 1 2164.64 1612)">F</text><text font-family="Aptos,Aptos_MSFontService,sans-serif" font-weight="700" font-size="73" transform="matrix(1 0 0 1 2223.65 1639)">2</text><text font-family="Aptos,Aptos_MSFontService,sans-serif" font-weight="700" font-size="110" transform="matrix(1 0 0 1 2164.64 1273)">O</text></g></svg>